{
  "accessors": [
    {
      "bufferView": 2,
      "componentType": 5126,
      "count": 408,
      "max": [
        187.8873291015625,
        125.61228942871094,
        266.37783813476562
      ],
      "min": [
        -187.88739013671875,
        -124.77175903320312,
        -0.09752953052520752
      ],
      "type": "VEC3"
    },
    {
      "bufferView": 2,
      "byteOffset": 4896,
      "componentType": 5126,
      "count": 408,
      "max": [
        1,
        1,
        1
      ],
      "min": [
        -1,
        -0.98480796813964844,
        -1
      ],
      "type": "VEC3"
    },
    {
      "bufferView": 3,
      "componentType": 5126,
      "count": 408,
      "max": [
        0.99323582649230957,
        1,
        1,
        1
      ],
      "min": [
        -0.99952524900436401,
        -1,
        -0.38383844494819641,
        -1
      ],
      "type": "VEC4"
    },
    {
      "bufferView": 1,
      "componentType": 5126,
      "count": 408,
      "max": [
        1.1512295007705688,
        1.1827988624572754
      ],
      "min": [
        -0.15124848484992981,
        -0.18278405070304871
      ],
      "type": "VEC2"
    },
    {
      "bufferView": 0,
      "componentType": 5125,
      "count": 1158,
      "max": [
        407
      ],
      "min": [
        0
      ],
      "type": "SCALAR"
    },
    {
      "bufferView": 2,
      "byteOffset": 9792,
      "componentType": 5126,
      "count": 252,
      "max": [
        31.940479278564453,
        31.455232620239258,
        -0.097285151481628418
      ],
      "min": [
        -31.940479278564453,
        -31.455234527587891,
        -2.0102164745330811
      ],
      "type": "VEC3"
    },
    {
      "bufferView": 2,
      "byteOffset": 12816,
      "componentType": 5126,
      "count": 252,
      "max": [
        0.98019129037857056,
        0.96530014276504517,
        -0.19804684817790985
      ],
      "min": [
        -0.98019140958786011,
        -0.96530014276504517,
        -1
      ],
      "type": "VEC3"
    },
    {
      "bufferView": 3,
      "byteOffset": 6528,
      "componentType": 5126,
      "count": 252,
      "max": [
        0.96777844429016113,
        0.95278424024581909,
        0.97838830947875977,
        1
      ],
      "min": [
        -0.96196883916854858,
        -1,
        -0.97838860750198364,
        -1
      ],
      "type": "VEC4"
    },
    {
      "bufferView": 1,
      "byteOffset": 3264,
      "componentType": 5126,
      "count": 252,
      "max": [
        0.96236062049865723,
        0.96949338912963867
      ],
      "min": [
        0.037639100104570389,
        0.030507370829582214
      ],
      "type": "VEC2"
    },
    {
      "bufferView": 0,
      "byteOffset": 4632,
      "componentType": 5125,
      "count": 372,
      "max": [
        251
      ],
      "min": [
        0
      ],
      "type": "SCALAR"
    },
    {
      "bufferView": 2,
      "byteOffset": 15840,
      "componentType": 5126,
      "count": 38,
      "max": [
        29.633245468139648,
        29.183055877685547,
        164.16923522949219
      ],
      "min": [
        -29.633245468139648,
        -29.183050155639648,
        16.416915893554688
      ],
      "type": "VEC3"
    },
    {
      "bufferView": 2,
      "byteOffset": 16296,
      "componentType": 5126,
      "count": 38,
      "max": [
        1,
        0.98480784893035889,
        2.5943592163457652e-08
      ],
      "min": [
        -1,
        -0.98480790853500366,
        -5.8783754752766981e-08
      ],
      "type": "VEC3"
    },
    {
      "bufferView": 3,
      "byteOffset": 10560,
      "componentType": 5126,
      "count": 38,
      "max": [
        0.98480790853500366,
        1,
        3.9775079585524509e-07,
        1
      ],
      "min": [
        -0.98480784893035889,
        -1,
        -3.9602451806786121e-07,
        1
      ],
      "type": "VEC4"
    },
    {
      "bufferView": 1,
      "byteOffset": 5280,
      "componentType": 5126,
      "count": 38,
      "max": [
        0.99978286027908325,
        0.99969136714935303
      ],
      "min": [
        6.795395165681839e-05,
        0.00079216063022613525
      ],
      "type": "VEC2"
    },
    {
      "bufferView": 0,
      "byteOffset": 6120,
      "componentType": 5125,
      "count": 108,
      "max": [
        37
      ],
      "min": [
        0
      ],
      "type": "SCALAR"
    },
    {
      "bufferView": 2,
      "byteOffset": 16752,
      "componentType": 5126,
      "count": 80,
      "max": [
        255.88925170898438,
        124.03353881835938,
        263.11795043945312
      ],
      "min": [
        -255.8892822265625,
        -123.19300842285156,
        168.91567993164062
      ],
      "type": "VEC3"
    },
    {
      "bufferView": 2,
      "byteOffset": 17712,
      "componentType": 5126,
      "count": 80,
      "max": [
        1,
        0.8381422758102417,
        0.96960872411727905
      ],
      "min": [
        -1,
        -0.8381420373916626,
        -0.96960878372192383
      ],
      "type": "VEC3"
    },
    {
      "bufferView": 3,
      "byteOffset": 11168,
      "componentType": 5126,
      "count": 80,
      "max": [
        0.83807897567749023,
        -0.54115915298461914,
        0.091547586023807526,
        1
      ],
      "min": [
        -0.83807927370071411,
        -1,
        -0.12522047758102417,
        -1
      ],
      "type": "VEC4"
    },
    {
      "bufferView": 1,
      "byteOffset": 5584,
      "componentType": 5126,
      "count": 80,
      "max": [
        1.0019242763519287,
        0.99592077732086182
      ],
      "min": [
        0.0045767240226268768,
        0.003435507183894515
      ],
      "type": "VEC2"
    },
    {
      "bufferView": 0,
      "byteOffset": 6552,
      "componentType": 5125,
      "count": 132,
      "max": [
        79
      ],
      "min": [
        0
      ],
      "type": "SCALAR"
    },
    {
      "bufferView": 2,
      "byteOffset": 18672,
      "componentType": 5126,
      "count": 4,
      "max": [
        187.88729858398438,
        -124.77168273925781,
        249.13099670410156
      ],
      "min": [
        -187.88739013671875,
        -124.77175903320312,
        182.90264892578125
      ],
      "type": "VEC3"
    },
    {
      "bufferView": 2,
      "byteOffset": 18720,
      "componentType": 5126,
      "count": 4,
      "max": [
        -1.6242488243278785e-07,
        -1,
        2.3039685004277999e-07
      ],
      "min": [
        -1.6242496769791614e-07,
        -1,
        2.3039646634970268e-07
      ],
      "type": "VEC3"
    },
    {
      "bufferView": 3,
      "byteOffset": 12448,
      "componentType": 5126,
      "count": 4,
      "max": [
        4.6125472863423056e-07,
        -2.3039656582568568e-07,
        -1,
        1
      ],
      "min": [
        4.612546717908117e-07,
        -2.3039694951876299e-07,
        -1,
        1
      ],
      "type": "VEC4"
    },
    {
      "bufferView": 1,
      "byteOffset": 6224,
      "componentType": 5126,
      "count": 4,
      "max": [
        0.99558418989181519,
        0.99950003623962402
      ],
      "min": [
        0.00049999996554106474,
        0.00050000002374872565
      ],
      "type": "VEC2"
    },
    {
      "bufferView": 0,
      "byteOffset": 7080,
      "componentType": 5125,
      "count": 6,
      "max": [
        3
      ],
      "min": [
        0
      ],
      "type": "SCALAR"
    },
    {
      "bufferView": 2,
      "byteOffset": 18768,
      "componentType": 5126,
      "count": 166,
      "max": [
        78.050567626953125,
        11.949485778808594,
        2.3032131195068359
      ],
      "min": [
        -78.05059814453125,
        -11.108896255493164,
        -93.084243774414062
      ],
      "type": "VEC3"
    },
    {
      "bufferView": 2,
      "byteOffset": 20760,
      "componentType": 5126,
      "count": 166,
      "max": [
        0.98278802633285522,
        0.99984908103942871,
        0.99873024225234985
      ],
      "min": [
        -0.98278826475143433,
        -0.99984914064407349,
        -0.99524354934692383
      ],
      "type": "VEC3"
    },
    {
      "bufferView": 3,
      "byteOffset": 12512,
      "componentType": 5126,
      "count": 166,
      "max": [
        0.99932467937469482,
        0.99873030185699463,
        0.9998239278793335,
        1
      ],
      "min": [
        -0.99932467937469482,
        -0.99559140205383301,
        -0.9998239278793335,
        1
      ],
      "type": "VEC4"
    },
    {
      "bufferView": 1,
      "byteOffset": 6256,
      "componentType": 5126,
      "count": 166,
      "max": [
        1.1619614362716675,
        0.95454549789428711
      ],
      "min": [
        -0.16160279512405396,
        0.045454546809196472
      ],
      "type": "VEC2"
    },
    {
      "bufferView": 0,
      "byteOffset": 7104,
      "componentType": 5125,
      "count": 720,
      "max": [
        165
      ],
      "min": [
        0
      ],
      "type": "SCALAR"
    }
  ],
  "asset": {
    "extras": {
      "author": "Anthony Yanez (https://sketchfab.com/paulyanez)",
      "license": "CC-BY-4.0 (http://creativecommons.org/licenses/by/4.0/)",
      "source": "https://sketchfab.com/models/d499e1bc8a514e4bb5ca995ea6ba23b6",
      "title": "Thor's Hammer (Mjolnir)"
    },
    "generator": "Sketchfab-3.53.1",
    "version": "2.0"
  },
  "bufferViews": [
    {
      "buffer": 0,
      "byteLength": 9984,
      "byteOffset": 0,
      "name": "floatBufferViews",
      "target": 34963
    },
    {
      "buffer": 0,
      "byteLength": 7584,
      "byteOffset": 9984,
      "byteStride": 8,
      "name": "floatBufferViews",
      "target": 34962
    },
    {
      "buffer": 0,
      "byteLength": 22752,
      "byteOffset": 17568,
      "byteStride": 12,
      "name": "floatBufferViews",
      "target": 34962
    },
    {
      "buffer": 0,
      "byteLength": 15168,
      "byteOffset": 40320,
      "byteStride": 16,
      "name": "floatBufferViews",
      "target": 34962
    }
  ],
  "buffers": [
    {
      "byteLength": 55488,
      "uri": "scene.bin"
    }
  ],
  "images": [
    {
      "uri": "textures/03_-_Default_baseColor.png"
    },
    {
      "uri": "textures/03_-_Default_normal.png"
    },
    {
      "uri": "textures/07_-_Default_baseColor.png"
    },
    {
      "uri": "textures/07_-_Default_normal.png"
    },
    {
      "uri": "textures/08_-_Default_baseColor.png"
    },
    {
      "uri": "textures/08_-_Default_normal.png"
    },
    {
      "uri": "textures/09_-_Default_baseColor.jpeg"
    },
    {
      "uri": "textures/09_-_Default_normal.png"
    },
    {
      "uri": "textures/02_-_Default_baseColor.png"
    },
    {
      "uri": "textures/02_-_Default_normal.png"
    },
    {
      "uri": "textures/13_-_Default_baseColor.png"
    },
    {
      "uri": "textures/13_-_Default_normal.png"
    }
  ],
  "materials": [
    {
      "doubleSided": true,
      "emissiveFactor": [
        0,
        0,
        0
      ],
      "name": "08_-_Default",
      "normalTexture": {
        "index": 5,
        "scale": 0.2395198171,
        "texCoord": 0
      },
      "pbrMetallicRoughness": {
        "baseColorFactor": [
          1,
          1,
          1,
          1
        ],
        "baseColorTexture": {
          "index": 4,
          "texCoord": 0
        },
        "metallicFactor": 1,
        "roughnessFactor": 0.57145579270000002
      }
    },
    {
      "doubleSided": true,
      "emissiveFactor": [
        0,
        0,
        0
      ],
      "name": "07_-_Default",
      "normalTexture": {
        "index": 3,
        "scale": 1,
        "texCoord": 0
      },
      "pbrMetallicRoughness": {
        "baseColorFactor": [
          1,
          1,
          1,
          1
        ],
        "baseColorTexture": {
          "index": 2,
          "texCoord": 0
        },
        "metallicFactor": 0.270007622,
        "roughnessFactor": 0.89297135959999996
      }
    },
    {
      "doubleSided": true,
      "emissiveFactor": [
        0,
        0,
        0
      ],
      "name": "03_-_Default",
      "normalTexture": {
        "index": 1,
        "scale": 1,
        "texCoord": 0
      },
      "pbrMetallicRoughness": {
        "baseColorFactor": [
          1,
          1,
          1,
          1
        ],
        "baseColorTexture": {
          "index": 0,
          "texCoord": 0
        },
        "metallicFactor": 1,
        "roughnessFactor": 0.89297135959999996
      }
    },
    {
      "doubleSided": true,
      "emissiveFactor": [
        0,
        0,
        0
      ],
      "name": "02_-_Default",
      "normalTexture": {
        "index": 9,
        "scale": 1,
        "texCoord": 0
      },
      "pbrMetallicRoughness": {
        "baseColorFactor": [
          1,
          1,
          1,
          1
        ],
        "baseColorTexture": {
          "index": 8,
          "texCoord": 0
        },
        "metallicFactor": 0.83708079270000002,
        "roughnessFactor": 0.56535823169999999
      }
    },
    {
      "doubleSided": true,
      "emissiveFactor": [
        0,
        0,
        0
      ],
      "name": "13_-_Default",
      "normalTexture": {
        "index": 11,
        "scale": 1,
        "texCoord": 0
      },
      "pbrMetallicRoughness": {
        "baseColorFactor": [
          1,
          1,
          1,
          1
        ],
        "baseColorTexture": {
          "index": 10,
          "texCoord": 0
        },
        "metallicFactor": 1,
        "roughnessFactor": 0.57099999999999995
      }
    },
    {
      "doubleSided": true,
      "emissiveFactor": [
        0,
        0,
        0
      ],
      "name": "09_-_Default",
      "normalTexture": {
        "index": 7,
        "scale": 1,
        "texCoord": 0
      },
      "pbrMetallicRoughness": {
        "baseColorFactor": [
          1,
          1,
          1,
          1
        ],
        "baseColorTexture": {
          "index": 6,
          "texCoord": 0
        },
        "metallicFactor": 1,
        "roughnessFactor": 0.89297135959999996
      }
    }
  ],
  "meshes": [
    {
      "name": "Mjolnir_08 - Default_0",
      "primitives": [
        {
          "attributes": {
            "NORMAL": 1,
            "POSITION": 0,
            "TANGENT": 2,
            "TEXCOORD_0": 3
          },
          "indices": 4,
          "material": 0,
          "mode": 4
        }
      ]
    },
    {
      "name": "Mjolnir_07 - Default_0",
      "primitives": [
        {
          "attributes": {
            "NORMAL": 6,
            "POSITION": 5,
            "TANGENT": 7,
            "TEXCOORD_0": 8
          },
          "indices": 9,
          "material": 1,
          "mode": 4
        }
      ]
    },
    {
      "name": "Mjolnir_03 - Default_0",
      "primitives": [
        {
          "attributes": {
            "NORMAL": 11,
            "POSITION": 10,
            "TANGENT": 12,
            "TEXCOORD_0": 13
          },
          "indices": 14,
          "material": 2,
          "mode": 4
        }
      ]
    },
    {
      "name": "Mjolnir_02 - Default_0",
      "primitives": [
        {
          "attributes": {
            "NORMAL": 16,
            "POSITION": 15,
            "TANGENT": 17,
            "TEXCOORD_0": 18
          },
          "indices": 19,
          "material": 3,
          "mode": 4
        }
      ]
    },
    {
      "name": "Mjolnir_13 - Default_0",
      "primitives": [
        {
          "attributes": {
            "NORMAL": 21,
            "POSITION": 20,
            "TANGENT": 22,
            "TEXCOORD_0": 23
          },
          "indices": 24,
          "material": 4,
          "mode": 4
        }
      ]
    },
    {
      "name": "Mjolnir_09 - Default_0",
      "primitives": [
        {
          "attributes": {
            "NORMAL": 26,
            "POSITION": 25,
            "TANGENT": 27,
            "TEXCOORD_0": 28
          },
          "indices": 29,
          "material": 5,
          "mode": 4
        }
      ]
    }
  ],
  "nodes": [
    {
      "children": [
        1
      ],
      "name": "RootNode (gltf orientation matrix)",
      "rotation": [
        -0.70710678118654746,
        -0,
        -0,
        0.70710678118654757
      ]
    },
    {
      "children": [
        2
      ],
      "matrix": [
        0.9626460075378418,
        0,
        -0.27076318860054016,
        0,
        0,
        1,
        0,
        0,
        0.27076318860054016,
        0,
        0.9626460075378418,
        0,
        19.693672180175781,
        0,
        -2.9025514125823975,
        1
      ],
      "name": "RootNode (model correction matrix)"
    },
    {
      "children": [
        3
      ],
      "matrix": [
        1,
        0,
        0,
        0,
        0,
        0,
        1,
        0,
        0,
        -1,
        0,
        0,
        0,
        0,
        0,
        1
      ],
      "name": "Mjolnir.FBX"
    },
    {
      "children": [
        4
      ],
      "name": "RootNode"
    },
    {
      "children": [
        5,
        6,
        7,
        8,
        9,
        10
      ],
      "matrix": [
        1.4334310293197632,
        0,
        0,
        0,
        0,
        3.1828562659258779e-16,
        -1.4334310293197632,
        0,
        0,
        4.4159283638000488,
        9.8053306891722177e-16,
        0,
        -0.66225165128707886,
        -455.45309448242188,
        51.154273986816406,
        1
      ],
      "name": "Mjolnir"
    },
    {
      "mesh": 0,
      "name": "Mjolnir_08 - Default_0"
    },
    {
      "mesh": 1,
      "name": "Mjolnir_07 - Default_0"
    },
    {
      "mesh": 2,
      "name": "Mjolnir_03 - Default_0"
    },
    {
      "mesh": 3,
      "name": "Mjolnir_02 - Default_0"
    },
    {
      "mesh": 4,
      "name": "Mjolnir_13 - Default_0"
    },
    {
      "mesh": 5,
      "name": "Mjolnir_09 - Default_0"
    }
  ],
  "samplers": [
    {
      "magFilter": 9729,
      "minFilter": 9987,
      "wrapS": 10497,
      "wrapT": 10497
    }
  ],
  "scene": 0,
  "scenes": [
    {
      "name": "OSG_Scene",
      "nodes": [
        0
      ]
    }
  ],
  "textures": [
    {
      "sampler": 0,
      "source": 0
    },
    {
      "sampler": 0,
      "source": 1
    },
    {
      "sampler": 0,
      "source": 2
    },
    {
      "sampler": 0,
      "source": 3
    },
    {
      "sampler": 0,
      "source": 4
    },
    {
      "sampler": 0,
      "source": 5
    },
    {
      "sampler": 0,
      "source": 6
    },
    {
      "sampler": 0,
      "source": 7
    },
    {
      "sampler": 0,
      "source": 8
    },
    {
      "sampler": 0,
      "source": 9
    },
    {
      "sampler": 0,
      "source": 10
    },
    {
      "sampler": 0,
      "source": 11
    }
  ]
}

