{
  "accessors": [
    {
      "bufferView": 2,
      "componentType": 5126,
      "count": 2223,
      "max": [
        0.088393718004226685,
        0.24054747819900513,
        0.048867136240005493
      ],
      "min": [
        -0.087928876280784607,
        0.00014472231850959361,
        -0.048614796251058578
      ],
      "type": "VEC3"
    },
    {
      "bufferView": 2,
      "byteOffset": 26676,
      "componentType": 5126,
      "count": 2223,
      "max": [
        0.99862635135650635,
        0.99821537733078003,
        0.99949461221694946
      ],
      "min": [
        -0.99919396638870239,
        -0.99900919198989868,
        -0.99995416402816772
      ],
      "type": "VEC3"
    },
    {
      "bufferView": 3,
      "componentType": 5126,
      "count": 2223,
      "max": [
        0.99827015399932861,
        0.99995237588882446,
        0.99598759412765503,
        1
      ],
      "min": [
        -0.99859225749969482,
        -0.99822378158569336,
        -0.99488687515258789,
        -1
      ],
      "type": "VEC4"
    },
    {
      "bufferView": 3,
      "byteOffset": 35568,
      "componentType": 5126,
      "count": 2223,
      "max": [
        1,
        1,
        1,
        1
      ],
      "min": [
        1,
        1,
        1,
        1
      ],
      "type": "VEC4"
    },
    {
      "bufferView": 1,
      "componentType": 5126,
      "count": 2223,
      "max": [
        0.99809432029724121,
        0.98023718595504761
      ],
      "min": [
        0.00097465887665748596,
        0.00097465742146596313
      ],
      "type": "VEC2"
    },
    {
      "bufferView": 1,
      "byteOffset": 17784,
      "componentType": 5126,
      "count": 2223,
      "max": [
        0.99809432029724121,
        0.98023718595504761
      ],
      "min": [
        0.00097465887665748596,
        0.00097465742146596313
      ],
      "type": "VEC2"
    },
    {
      "bufferView": 0,
      "componentType": 5125,
      "count": 9018,
      "max": [
        2222
      ],
      "min": [
        0
      ],
      "type": "SCALAR"
    }
  ],
  "asset": {
    "extras": {
      "author": "David Wigforss (https://sketchfab.com/dwigfor)",
      "license": "CC-BY-NC-4.0 (http://creativecommons.org/licenses/by-nc/4.0/)",
      "source": "https://sketchfab.com/3d-models/hulk-mask-2-marvel-f2987b8a482c4d368bd26ef7b6aee765",
      "title": "Hulk Mask 2 (Marvel)"
    },
    "generator": "Sketchfab-6.72.0",
    "version": "2.0"
  },
  "bufferViews": [
    {
      "buffer": 0,
      "byteLength": 36072,
      "byteOffset": 0,
      "name": "floatBufferViews",
      "target": 34963
    },
    {
      "buffer": 0,
      "byteLength": 35568,
      "byteOffset": 36072,
      "byteStride": 8,
      "name": "floatBufferViews",
      "target": 34962
    },
    {
      "buffer": 0,
      "byteLength": 53352,
      "byteOffset": 71640,
      "byteStride": 12,
      "name": "floatBufferViews",
      "target": 34962
    },
    {
      "buffer": 0,
      "byteLength": 71136,
      "byteOffset": 124992,
      "byteStride": 16,
      "name": "floatBufferViews",
      "target": 34962
    }
  ],
  "buffers": [
    {
      "byteLength": 196128,
      "uri": "scene.bin"
    }
  ],
  "images": [
    {
      "uri": "textures/MAT_Mask_Hulk2_baseColor.jpeg"
    },
    {
      "uri": "textures/MAT_Mask_Hulk2_normal.png"
    }
  ],
  "materials": [
    {
      "doubleSided": true,
      "emissiveFactor": [
        0,
        0,
        0
      ],
      "name": "MAT_Mask_Hulk2",
      "normalTexture": {
        "index": 1,
        "scale": 1,
        "texCoord": 0
      },
      "pbrMetallicRoughness": {
        "baseColorFactor": [
          1,
          1,
          1,
          1
        ],
        "baseColorTexture": {
          "index": 0,
          "texCoord": 0
        },
        "metallicFactor": 0,
        "roughnessFactor": 0.95770514946237739
      }
    }
  ],
  "meshes": [
    {
      "name": "geo1_MAT_Mask_Hulk2_0",
      "primitives": [
        {
          "attributes": {
            "COLOR_0": 3,
            "NORMAL": 1,
            "POSITION": 0,
            "TANGENT": 2,
            "TEXCOORD_0": 4,
            "TEXCOORD_1": 5
          },
          "indices": 6,
          "material": 0,
          "mode": 4
        }
      ]
    }
  ],
  "nodes": [
    {
      "children": [
        1
      ],
      "name": "RootNode (gltf orientation matrix)",
      "rotation": [
        -0.70710678118654746,
        -0,
        -0,
        0.70710678118654757
      ]
    },
    {
      "children": [
        2
      ],
      "name": "RootNode (model correction matrix)"
    },
    {
      "children": [
        3
      ],
      "matrix": [
        1,
        0,
        0,
        0,
        0,
        0,
        1,
        0,
        0,
        -1,
        0,
        0,
        0,
        0,
        0,
        1
      ],
      "name": "mesh.fbx"
    },
    {
      "children": [
        4
      ],
      "name": "RootNode"
    },
    {
      "children": [
        5
      ],
      "name": "geo1"
    },
    {
      "mesh": 0,
      "name": "geo1_MAT_Mask_Hulk2_0"
    }
  ],
  "samplers": [
    {
      "magFilter": 9729,
      "minFilter": 9987,
      "wrapS": 10497,
      "wrapT": 10497
    }
  ],
  "scene": 0,
  "scenes": [
    {
      "name": "OSG_Scene",
      "nodes": [
        0
      ]
    }
  ],
  "textures": [
    {
      "sampler": 0,
      "source": 0
    },
    {
      "sampler": 0,
      "source": 1
    }
  ]
}

